<svg xmlns="http://www.w3.org/2000/svg" xmlns:xlink="http://www.w3.org/1999/xlink" version="1.1" x="0px" y="0px" viewBox="0 0 468.001 585.00125" style="enable-background:new 0 0 468.001 468.001;" xml:space="preserve"><g><g><g><g><path d="M227.2,468.001c-3.139,0-5.582-3.002-4.882-6.103c9.251-40.953,3.329-83.864-16.676-120.828      c-20.283-37.482-35.581-77.859-27.086-121.066c0.533-2.709,3.163-4.475,5.871-3.942c2.71,0.533,4.475,3.161,3.942,5.871      c-8.027,40.823,6.939,79.023,26.069,114.379c21.156,39.093,27.419,84.476,17.635,127.79      C231.548,466.424,229.485,468.001,227.2,468.001z"/></g></g><g><g><path d="M260.113,460.415c-0.258,0-0.52-0.02-0.783-0.061c-2.728-0.429-4.591-2.988-4.163-5.716      c0.502-3.191,0.933-6.45,1.279-9.684c0.295-2.746,2.745-4.73,5.506-4.438c2.746,0.295,4.733,2.759,4.439,5.505      c-0.364,3.396-0.816,6.819-1.344,10.171C264.659,458.656,262.532,460.415,260.113,460.415z"/></g></g><g><g><path d="M262.567,426.199c-2.734,0-4.965-2.198-5-4.939c-0.394-32.203-8.711-64.21-24.055-92.562      c-1.314-2.429-0.411-5.463,2.018-6.777c2.429-1.313,5.464-0.411,6.778,2.018c16.111,29.771,24.846,63.381,25.26,97.198      c0.033,2.761-2.178,5.027-4.939,5.061C262.608,426.199,262.588,426.199,262.567,426.199z"/></g></g><g><g><g><g><g><path d="M318.28,22.748c-2.762,0-5.001-2.239-5.001-5V5c0-2.761,2.239-5,5.001-5c2.762,0,5.001,2.239,5.001,5v12.748         C323.28,20.509,321.042,22.748,318.28,22.748z"/></g></g><g><g><path d="M212.708,66.731c-1.281,0-2.561-0.489-3.538-1.466l-9.006-9.014c-1.952-1.954-1.95-5.119,0.003-7.071         s5.12-1.95,7.072,0.003l9.006,9.014C219.212,61.166,216.905,66.731,212.708,66.731z"/></g></g><g><g><path d="M186.817,138.875H174.08c-2.762,0-5.001-2.239-5.001-5s2.239-5,5.001-5h12.736c2.762,0,5.001,2.239,5.001,5         S189.578,138.875,186.817,138.875z"/></g></g><g><g><path d="M463,138.353h-12.736c-2.762,0-5.001-2.239-5.001-5s2.239-5,5.001-5H463c2.762,0,5.001,2.239,5.001,5         S465.762,138.353,463,138.353z"/></g></g><g><g><path d="M424.004,66.362c-4.197,0-6.505-5.565-3.538-8.534l9.006-9.014c1.953-1.954,5.119-1.955,7.072-0.004         c1.953,1.952,1.955,5.118,0.003,7.071l-9.006,9.014C426.565,65.874,425.284,66.362,424.004,66.362z"/></g></g></g><g><path d="M459.181,321.824c-12.937-22.789-22.045-44.086-24.109-70.344c-1.951-23.569-7.43-44.607-16.273-62.592       c5.066-12.778,7.754-26.506,7.754-40.504c0-60.125-48.454-109.041-108.014-109.041S210.527,88.258,210.527,148.383       c0,31.118,13.227,60.83,36.289,81.517c10.39,9.319,18.165,20.883,22.707,33.687c-8.517,3.008-14.638,11.135-14.638,20.668       c0,10.268,7.101,18.906,16.65,21.271V321c0,9.801,7.461,17.89,17.002,18.893c-0.426,16.719,13.153,31.039,30.004,31.039       s30.43-14.319,30.004-31.039c9.541-1.003,17.002-9.092,17.002-18.893v-15.474c9.549-2.365,16.65-11.003,16.65-21.271       c0-12.084-9.832-21.916-21.918-21.916h-80.62c-4.976-15.212-13.961-28.939-26.164-39.883       c-20.95-18.793-32.966-45.792-32.966-74.073c0-54.611,43.968-99.041,98.012-99.041s98.012,44.429,98.012,99.041       c0,23.98-8.594,47.116-24.199,65.147c-1.807,2.088-1.579,5.246,0.51,7.053c2.087,1.807,5.245,1.579,7.054-0.509       c5.156-5.957,9.601-12.428,13.319-19.27c6.282,15.092,10.262,32.296,11.852,51.299c0.099,27.03,12.384,51.747,25.423,74.705       c2.055,3.596,0.35,10.41-4.625,10.41h-15.704c-2.762,0-5.001,2.239-5.001,5v34.248c0,21.505-17.497,39-39.005,39       c-2.762,0-5.001,2.239-5.001,5c0,16.203-0.376,31.661,9.784,45.494c0.981,1.334,2.497,2.041,4.035,2.041       c4.069,0,6.389-4.743,4.027-7.96c-7.776-10.585-7.845-22.374-7.845-34.828c24.683-2.511,44.006-23.415,44.006-48.747v-29.248       h10.703C458.442,347.218,465.27,332.07,459.181,321.824z M318.54,360.931c-11.432,0-20.191-9.744-20.003-20.931h40.005       C338.769,351.18,329.948,360.931,318.54,360.931z M355.545,321c0,4.962-4.038,9-9.001,9h-56.007c-4.964,0-9.001-4.038-9.001-9       v-14.83h74.009V321z M360.278,272.339c6.571,0,11.917,5.345,11.917,11.916c0,6.57-5.345,11.915-11.917,11.915h-83.475       c-6.571,0-11.917-5.345-11.917-11.915c0-6.57,5.345-11.916,11.917-11.916H360.278z"/></g></g><g><g><g><path d="M373.547,207.331H263.533c-8.273,0-15.002-6.729-15.002-15v-27.714c0-2.761,2.239-5,5.001-5s5.001,2.239,5.001,5        v27.714c0,2.757,2.243,5,5.001,5h110.014c2.757,0,5.001-2.243,5.001-5v-26.714c0-2.761,2.239-5,5.001-5s5.001,2.239,5.001,5        v26.714C388.549,200.602,381.82,207.331,373.547,207.331z"/></g></g><g><path d="M380.548,99.331h-30.004V85.669c0-8.271-6.729-15-15.002-15h-34.004c-8.273,0-15.002,6.729-15.002,15v13.661h-30.004       c-7.169,0-13.002,5.832-13.002,13v19.348c0,5.022,3.397,9.403,8.262,10.653l48.338,12.428v12.978c0,2.761,2.239,5,5.001,5       h26.817c2.762,0,5.001-2.239,5.001-5V154.76l48.339-12.428c4.865-1.25,8.262-5.631,8.262-10.653v-19.348       C393.55,105.162,387.717,99.331,380.548,99.331z M296.538,85.669c0-2.757,2.243-5,5.001-5h34.004c2.757,0,5.001,2.243,5.001,5       v13.661h-44.006V85.669z M326.948,162.737h-16.816v-16.813h16.816V162.737z M383.548,131.678c0,0.457-0.309,0.855-0.751,0.969       l-45.849,11.788v-3.511c0-2.761-2.239-5-5.001-5h-26.817c-2.762,0-5.001,2.239-5.001,5v3.511l-45.848-11.788       c-0.442-0.114-0.751-0.512-0.751-0.969v-19.348c0-1.654,1.346-3,3-3h124.016c1.655,0,3,1.346,3,3V131.678z"/></g></g></g></g><g><g><g><path d="M83.931,305H64.016c-7.169,0-13.002-5.832-13.002-13v-7.282c-5.456-2.161-10.533-5.066-15.158-8.673l-6.569,3.751      c-6.169,3.522-14.098,1.397-17.678-4.736l-9.893-16.952c-3.565-6.109-1.376-14.324,4.78-17.84l6.378-3.643      c-0.816-5.712-0.816-11.537,0-17.25l-6.378-3.643c-6.142-3.509-8.355-11.717-4.78-17.84l9.893-16.953      c3.58-6.134,11.509-8.259,17.678-4.736l6.569,3.752c4.626-3.607,9.702-6.512,15.158-8.674V164c0-7.168,5.832-13,13.002-13      h19.916c7.169,0,13.002,5.832,13.002,13v7.282c5.456,2.161,10.532,5.066,15.158,8.674l6.569-3.752      c6.168-3.523,14.099-1.398,17.678,4.736l9.893,16.952c3.566,6.109,1.376,14.324-4.781,17.84l-6.378,3.643      c0.816,5.712,0.816,11.538,0,17.25l6.378,3.642c6.157,3.533,8.374,11.684,4.781,17.84l-9.894,16.953      c-3.581,6.134-11.511,8.258-17.678,4.736l-6.569-3.752c-4.626,3.607-9.702,6.512-15.158,8.673V292      C96.933,299.168,91.101,305,83.931,305z M36.376,264.988c1.187,0,2.364,0.421,3.298,1.241      c5.249,4.603,11.274,8.047,17.909,10.238c2.049,0.676,3.433,2.59,3.433,4.748V292c0,1.654,1.346,3,3,3h19.916      c1.655,0,3-1.346,3-3v-10.785c0-2.157,1.384-4.071,3.433-4.748c6.634-2.191,12.659-5.635,17.908-10.238      c1.604-1.408,3.925-1.641,5.778-0.583l9.571,5.466c1.424,0.813,3.253,0.323,4.079-1.092l9.894-16.953      c0.777-1.679,0.409-3.052-1.104-4.117l-9.423-5.382c-1.878-1.072-2.853-3.23-2.418-5.348c1.381-6.72,1.381-13.722,0-20.442      c-0.435-2.118,0.541-4.275,2.418-5.348l9.423-5.382c1.512-1.066,1.88-2.438,1.104-4.117L127.7,185.98      c-0.826-1.415-2.655-1.907-4.08-1.092l-9.571,5.466c-1.853,1.058-4.173,0.825-5.778-0.583      c-5.249-4.603-11.274-8.047-17.908-10.238c-2.049-0.676-3.433-2.59-3.433-4.748V164c0-1.654-1.346-3-3-3H64.016      c-1.655,0-3,1.346-3,3v10.785c0,2.157-1.384,4.071-3.433,4.748c-6.634,2.19-12.659,5.635-17.909,10.238      c-1.604,1.408-3.925,1.641-5.778,0.583l-9.57-5.466c-1.423-0.812-3.254-0.322-4.08,1.093l-9.893,16.953      c-0.777,1.679-0.409,3.051,1.104,4.117l9.423,5.381c1.877,1.072,2.853,3.229,2.418,5.347c-1.38,6.722-1.38,13.721,0,20.443      c0.435,2.118-0.541,4.274-2.418,5.347l-9.423,5.382c-1.512,1.066-1.88,2.438-1.103,4.118l9.893,16.952      c0.826,1.416,2.657,1.906,4.08,1.093l9.57-5.466C34.67,265.205,35.525,264.988,36.376,264.988z"/></g></g><g><g><path d="M73.973,263c-19.301,0-35.004-15.701-35.004-35s15.703-35,35.004-35s35.004,15.701,35.004,35S93.275,263,73.973,263z       M73.973,203c-13.787,0-25.003,11.215-25.003,25s11.216,25,25.003,25s25.003-11.215,25.003-25S87.76,203,73.973,203z"/></g></g></g><g><g><g><path d="M119.44,120h-15.436c-6.066,0-11.001-4.935-11.001-11v-4.879c-3.745-1.556-7.256-3.565-10.494-6.006l-4.433,2.532      c-5.219,2.979-11.93,1.183-14.958-4.008l-7.669-13.142c-3.025-5.183-1.109-12.151,4.045-15.096l4.279-2.444      c-0.496-3.952-0.496-7.963,0-11.915l-4.279-2.444c-5.141-2.937-7.057-9.936-4.045-15.096l7.669-13.142      c3.029-5.189,9.74-6.989,14.958-4.008l4.433,2.532c3.238-2.441,6.748-4.45,10.494-6.006V11c0-6.065,4.935-11,11.001-11h15.436      c6.066,0,11.001,4.935,11.001,11v4.879c3.746,1.556,7.256,3.565,10.494,6.006l4.432-2.531c5.218-2.98,11.93-1.184,14.959,4.007      l7.669,13.142c3.024,5.183,1.11,12.152-4.045,15.096l-4.279,2.444c0.497,3.952,0.497,7.964,0,11.915l4.279,2.444      c5.11,2.989,7.083,9.889,4.045,15.095l-7.67,13.142c-3.029,5.19-9.74,6.988-14.958,4.008l-4.433-2.532      c-3.238,2.441-6.748,4.451-10.494,6.006V109C130.441,115.065,125.506,120,119.44,120z M83.002,87.074      c1.187,0,2.364,0.421,3.298,1.241c3.89,3.412,8.355,5.964,13.271,7.587c2.049,0.677,3.433,2.591,3.433,4.748V109      c0,0.551,0.449,1,1,1h15.436c0.551,0,1-0.449,1-1v-8.35c0-2.157,1.384-4.071,3.433-4.748c4.916-1.623,9.382-4.176,13.272-7.587      c1.604-1.407,3.925-1.642,5.778-0.582l7.406,4.23c0.475,0.27,1.085,0.107,1.361-0.365l7.669-13.142      c0.259-0.56,0.136-1.017-0.368-1.372l-7.296-4.167c-1.877-1.072-2.853-3.229-2.418-5.347c1.022-4.979,1.022-10.162,0-15.142      c-0.435-2.118,0.541-4.275,2.418-5.347l7.296-4.167c0.504-0.355,0.627-0.813,0.367-1.373l-7.669-13.141      c-0.275-0.472-0.886-0.635-1.36-0.364l-7.407,4.23c-1.853,1.057-4.172,0.824-5.778-0.583c-3.89-3.412-8.356-5.964-13.272-7.587      c-2.049-0.677-3.433-2.591-3.433-4.748V11c0-0.551-0.449-1-1-1h-15.436c-0.551,0-1,0.449-1,1v8.35      c0,2.157-1.384,4.071-3.433,4.748c-4.916,1.623-9.381,4.176-13.271,7.587c-1.604,1.407-3.925,1.641-5.778,0.583l-7.407-4.23      c-0.474-0.271-1.084-0.107-1.36,0.364l-7.669,13.142c-0.259,0.56-0.136,1.017,0.368,1.372l7.296,4.167      c1.878,1.073,2.853,3.23,2.418,5.348c-1.023,4.977-1.023,10.163,0,15.14c0.436,2.118-0.54,4.275-2.418,5.348l-7.296,4.167      c-0.504,0.355-0.626,0.813-0.368,1.372l7.669,13.142c0.276,0.472,0.886,0.637,1.36,0.364l7.407-4.23      C81.297,87.291,82.152,87.074,83.002,87.074z"/></g></g><g><g><path d="M111.722,85c-13.787,0-25.003-11.215-25.003-25s11.216-25,25.003-25s25.003,11.215,25.003,25S125.509,85,111.722,85z       M111.722,45c-8.272,0-15.002,6.729-15.002,15s6.73,15,15.002,15s15.002-6.729,15.002-15S119.994,45,111.722,45z"/></g></g></g><g><g><g><g><path d="M45.236,468H14.944c-2.762,0-5.001-2.239-5.001-5v-88.999c0-2.761,2.239-5,5.001-5h30.293c2.762,0,5.001,2.239,5.001,5       V463C50.237,465.761,47.998,468,45.236,468z M19.944,458h20.292v-78.999H19.944V458z"/></g></g><g><g><path d="M107.1,468H76.807c-2.762,0-5.001-2.239-5.001-5V340.089c0-2.761,2.239-5,5.001-5H107.1c2.762,0,5.001,2.239,5.001,5       v23.11c0,2.761-2.239,5-5.001,5c-2.762,0-5.001-2.239-5.001-5v-18.11H81.807V458h20.292v-41.514c0-2.761,2.239-5,5.001-5       c2.762,0,5.001,2.239,5.001,5V463C112.1,465.761,109.861,468,107.1,468z"/></g></g><g><g><path d="M168.963,468H138.67c-2.762,0-5.001-2.239-5.001-5v-64.999c0-2.761,2.239-5,5.001-5h30.293       c2.762,0,5.001,2.239,5.001,5V463C173.964,465.761,171.724,468,168.963,468z M143.671,458h20.292v-54.999h-20.292V458z"/></g></g></g></g><g><g><circle cx="193.225" cy="191.637" r="6.5"/></g></g><g><g><circle cx="107.1" cy="389.249" r="6.5"/></g></g><g><g><circle cx="374.716" cy="239.065" r="6.5"/></g></g></g><text x="0" y="483.001" fill="#000000" font-size="5px" font-weight="bold" font-family="'Helvetica Neue', Helvetica, Arial-Unicode, Arial, Sans-serif">Created by SBTS</text><text x="0" y="488.001" fill="#000000" font-size="5px" font-weight="bold" font-family="'Helvetica Neue', Helvetica, Arial-Unicode, Arial, Sans-serif">from the Noun Project</text></svg>